<svg xmlns="http://www.w3.org/2000/svg" width="800" height="800" viewBox="120 120 330 330">
  <defs>
    <clipPath id="a">
      <path d="M126 120h318v327H126Zm0 0"/>
    </clipPath>
    <clipPath id="b">
      <path d="M120.863 283.465c0 89.8 72.797 162.601 162.602 162.601s162.601-72.8 162.601-162.601c0-89.805-72.796-162.602-162.601-162.602-89.805 0-162.602 72.797-162.602 162.602"/>
    </clipPath>
  </defs>
  <path d="M446.07 283.469c0 89.8-72.8 162.601-162.605 162.601-89.8 0-162.602-72.8-162.602-162.601 0-89.805 72.801-162.606 162.602-162.606 89.805 0 162.605 72.801 162.605 162.606" fill="#fab20b"/>
  <g clip-path="url(#a)">
    <g clip-path="url(#b)">
      <path d="M207.465 436.133s40.414-12.742 46.387-32.793c4.058-13.64 12.78-57.61-4.793-61.563-23.61-5.304-32.918-5.816-49.125 1.57-16.204 7.387-41.637-.245-46.59-8.124-4.95-7.88-3.824-11.82-2.7-12.063 1.126-.246 4.954 6.402 11.032 8.125 6.074 1.723 17.101-2.219 22.73-5.418 5.63-3.199 10.52-8.215 10.52-8.215s-13.668-8.773-29.875-6.066c-16.207 2.71-31.09 11.074-32.89 12.55-1.798 1.481-2.024-2.214.675-7.136 2.703-4.926 9.707-14.77 24.336-18.707 14.633-3.941 15.527-3.941 15.527-3.941s-21.601-14.528-27.68-20.192c-6.078-5.66-14.57-12.21-15.69-15.265-2.11-5.75.034-8.278 2.702-9.602 1.66-.824 3.371 0 3.149.738-.227.739-3.137.598-3.149 4.68-.008 2.398 13.664 10.344 18.39 11.82 4.727 1.477 16.653.739 26.782 4.43 10.129 3.691-.906-1.457 10.344 4.7 11.258 6.155 8.187 8.362 8.187 8.362s3.668-16.425-13.925-20.492c-27.907-6.453-28.29-1.668-33.864-2.664-7.554-1.355-9-8.289-6.117-11.613 2.95-3.402 4.54-1.93 5.215-1.191.68.738-3.375 3.203-1.574 4.68 1.8 1.476 7.426 2.46 18.683-.985 11.25-3.45 17.551-7.633 17.551-7.633s-10.754-19.867-27.25-24.559c-12.531-3.562-14.648-1.046-15.144 2.153-.383 2.472 1.125 5.414 2.023 6.156.902.734-1.644.695-2.992-.535-1.352-1.23-5.621-5.836-1.715-11.457 3.195-4.594 11.418-8.153 26.61-6.41 8.984 1.03 10.14 2.89 10.14 2.89s-9.223-17.234-16.652-22.898c-7.43-5.664-19.133-10.832-22.73-18.465-3.602-7.633-4.055-14.773-5.856-23.39-1.801-8.622-2.477-13.544.902-10.094 3.375 3.445 4.113 16.093 7.879 19.695 15.125 14.476 18.16 2.66 30.383 12.312 5.293 4.176 20.258 29.543 24.531 33.485 4.277 3.937 9.23 5.414 10.129 5.414.902 0 2.25-7.14-2.7-15.02-4.952-7.875-13.503-14.523-17.777-17.48-4.28-2.953-7.66-7.387-7.66-9.848 0-2.46.68-5.172 1.805-5.418 1.125-.246-1.125 4.68 3.148 7.387 4.278 2.71 24.086 4.187 32.864 11.82 8.777 7.63 18.004 24.13 18.906 27.575.898 3.449 3.148-16.743-5.852-34.961-9.004-18.22-17.336-23.883-20.93-26.344-3.605-2.465-6.98-3.696-6.753-4.434.222-.738 15.304 2.707 24.304 7.633 9.004 4.926 21.16 12.805 22.73 36.688 1.579 23.882-7.874 23.386-4.5 40.378 3.38 16.989 11.79 20.711 14.044 21.946 2.25 1.226-12.485-13.125-6.442-35.274 5.434-19.93 11.704-29.297 13.727-30.039 2.027-.738-.445.989-2.246 7.145-1.8 6.152-5.125 29.82-1.973 37.207 3.149 7.387 5.781 5.047 7.805 9.476 2.027 4.434-5.106-7.261-3.98-17.847 1.124-10.59 6.527-25.61 5.398-41.86-1.125-16.25-12.168-29.035-15.77-29.035-3.601 0-4.953 2.953-5.851 4.184-.899 1.23-.676-5.168.898-6.895 1.574-1.722 7.32-3.613 13.68.614 7.117 4.73 19.887 7.667 24.078 45.859 2.258 20.55-4.078 25.691-.336 38.418 2.79 9.473 20.68 18.75 19.735 16.406-2.872-7.101-6.989-9.793-8.532-21.824-1.844-14.414.895-21.566-.004-27.723-.898-6.152-6.789-34.492-23-53.332-7.261-8.437-19.574-15.71-19.797-16.941-.226-1.23 10.348-.742 15.528.738 5.18 1.477 13.984 4.563 21.605 13.543 4.465 5.258 14.828 28.438 14.828 28.438s1.88-8.7 7.957-18.055c6.075-9.356 7.086-18.629 4.04-24.137-8.422-15.219 5.753-.277 7.14 2.91 1.985 4.559 3.258 10.618 4.285 20.66 1.664 16.25-7.949 48.27-9.3 52.454-1.352 4.187 11.105-15.063 14.847-26.207 3.102-9.247 8.246-26.172 10.496-34.297 2.25-8.125 4.051-10.832 4.278-9.848.222.984-.313 8.828-.227 11.82.23 7.918 3.148 8.29 3.34 16.078.172 7.086-2.813 15.75-3.035 16.98-.23 1.235 10.5-14.593 13.199-19.026 2.703-4.43 6.305-11.079 7.656-19.45 1.348-8.37-.226-11.082 0-12.312.223-1.23 1.797-.246 2.7 2.71.902 2.954 4.726 16.25 4.273 25.114-.445 8.863-6.906 18.168-6.906 18.168s16.136-13.242 21.312-18.168c5.176-4.926 9.68-13.789 10.8-18.469 1.13-4.675 2.255 4.434-.671 12.067s-9.453 16.742-16.879 26.344c-7.43 9.601-17.375 16.93-17.601 18.16-.223 1.234 15.73-3.977 25.125-12.29 6.101-5.406 24.66-20.644 27.812-25.074 3.152-4.433 3.152-3.203 2.477-1.476-.68 1.722-6.754 13.293-9.68 19.449-2.93 6.156-.988 7.441-9.453 14.773-3.274 2.836-13.899 10.536-13.899 10.536s9.168-5.055 18.125-4.79c8.121.239 11.352 3.825 13.602 4.81 2.25.984 7.266 8.339 6.36 9.323-.9.985-8.282-5.894-18.454-2.504-13.012 4.329-7.387 8.387-20.21 14.293-5.637 2.594-24.137 2.23-31.9 9.985-3.878 3.875-8.128 16.863-8.128 16.863s16.527-12.684 40.2-16.863c31.421-5.551 46.03 7.199 48.694 10.75 6.637 8.844 5.59 14.21 4.223 12.504-5.129-6.403-13.273-10.977-19.004-11.586-14.367-1.531-19.605 0-26.547 4.574-7.011 4.625-8.972 6.207-13.992 12.086-4.586 5.363-7.871 9.555-10.766 15.797-.492 1.062 11.122-6.817 26.56-2.426 15.058 4.281 17.597 9.867 21.116 13.426 1.996 2.015 6.614 5.578 11.68 6.308 15.277 2.207 13.277.485 14.879 1.454 1.547.94-9.918 15.69-28.36 16.48-11.34.484-12.367-.914-19.003-.305-15.563 1.43-15.559 4.008-25.325 8.27-15.386 6.715-26.293 12.52-37.875 24.144-11.312 11.356-13.945 18.559-16.25 32.54-2.523 15.308 7.055 42.894 14.813 50.648 10.668 10.668 33.848 17.902 40.668 18.668 6.535.734-63.485 20.601-94.774 19.617-31.285-.984-69.894-26.95-69.894-26.95" fill="#5d1f22"/>
    </g>
  </g>
  <path d="M270.586 282.871h20.164c-3.402-8.418-7.176-17.73-10.113-24.976a5744.272 5744.272 0 0 1-10.051 24.976m-43.371 41.879h-16.512c-4.016 0-7.285-3.266-7.285-7.281V264.16c0-4.015 3.27-7.285 7.285-7.285h42.238c3 0 5.442 2.441 5.442 5.445a5.449 5.449 0 0 1-5.442 5.446h-38.629v15.105h28.579c3 0 5.445 2.445 5.445 5.445a5.456 5.456 0 0 1-5.445 5.45h-28.578v20.093h12.902c12.496 0 20.691-4.957 25.047-15.148 5.113-11.957 16.574-40.617 21.265-52.387l.086-.187c.547-1.04 2.637-4.356 6.985-4.356 3.773 0 6.234 2.57 7.28 4.977l.02.047c.809 1.992 19.735 48.71 21.664 53.53 1.38 3.45 8.38 13.29 21.985 13.29 12.058 0 25.074-9.496 25.074-24.844 0-14.93-12.664-24.96-24.496-24.96-9.29 0-15.23 4.59-17.945 7.327a5.375 5.375 0 0 1-3.88 1.637c-2.991 0-5.433-2.437-5.433-5.43a5.39 5.39 0 0 1 1.219-3.43l-.024-.015.403-.406c3.953-3.95 12.539-10.574 25.66-10.574 8.844 0 17.738 3.683 24.41 10.11 7.082 6.827 10.98 15.968 10.98 25.741 0 19.707-16.136 35.739-35.968 35.739-17.516 0-28.985-12.352-32.098-20.137-.476-1.184-1.996-4.95-4.289-10.617h-29.023a832.916 832.916 0 0 1-3.86 9.226c-6.172 14.438-17.968 21.758-35.062 21.758" fill="#fff"/>
</svg>