<svg xmlns="http://www.w3.org/2000/svg" width="755.907" height="755.905" viewBox="0 0 566.93 566.929">
  <defs>
    <clipPath id="a">
      <path d="M126 120h318v327H126Zm0 0"/>
    </clipPath>
    <clipPath id="b">
      <path d="M120.863 283.465c0 89.8 72.797 162.601 162.602 162.601s162.601-72.8 162.601-162.601c0-89.805-72.796-162.602-162.601-162.602-89.805 0-162.602 72.797-162.602 162.602"/>
    </clipPath>
  </defs>
  <path d="M446.07 283.469c0 89.8-72.8 162.601-162.605 162.601-89.8 0-162.602-72.8-162.602-162.601 0-89.805 72.801-162.606 162.602-162.606 89.805 0 162.605 72.801 162.605 162.606" fill="#fab20b"/>
  <g clip-path="url(#a)">
    <g clip-path="url(#b)">
      <path d="M207.465 436.133s40.414-12.742 46.387-32.793c4.058-13.64 12.78-57.61-4.793-61.563-23.61-5.304-32.918-5.816-49.125 1.57-16.204 7.387-41.637-.245-46.59-8.124-4.95-7.88-3.824-11.82-2.7-12.063 1.126-.246 4.954 6.402 11.032 8.125 6.074 1.723 17.101-2.219 22.73-5.418 5.63-3.199 10.52-8.215 10.52-8.215s-13.668-8.773-29.875-6.066c-16.207 2.71-31.09 11.074-32.89 12.55-1.798 1.481-2.024-2.214.675-7.136 2.703-4.926 9.707-14.77 24.336-18.707 14.633-3.941 15.527-3.941 15.527-3.941s-21.601-14.528-27.68-20.192c-6.078-5.66-14.57-12.21-15.69-15.265-2.11-5.75.034-8.278 2.702-9.602 1.66-.824 3.371 0 3.149.738-.227.739-3.137.598-3.149 4.68-.008 2.398 13.664 10.344 18.39 11.82 4.727 1.477 16.653.739 26.782 4.43 10.129 3.691-.906-1.457 10.344 4.7 11.258 6.155 8.187 8.362 8.187 8.362s3.668-16.425-13.925-20.492c-27.907-6.453-28.29-1.668-33.864-2.664-7.554-1.355-9-8.289-6.117-11.613 2.95-3.402 4.54-1.93 5.215-1.191.68.738-3.375 3.203-1.574 4.68 1.8 1.476 7.426 2.46 18.683-.985 11.25-3.45 17.551-7.633 17.551-7.633s-10.754-19.867-27.25-24.559c-12.531-3.562-14.648-1.046-15.144 2.153-.383 2.472 1.125 5.414 2.023 6.156.902.734-1.644.695-2.992-.535-1.352-1.23-5.621-5.836-1.715-11.457 3.195-4.594 11.418-8.153 26.61-6.41 8.984 1.03 10.14 2.89 10.14 2.89s-9.223-17.234-16.652-22.898c-7.43-5.664-19.133-10.832-22.73-18.465-3.602-7.633-4.055-14.773-5.856-23.39-1.801-8.622-2.477-13.544.902-10.094 3.375 3.445 4.113 16.093 7.879 19.695 15.125 14.476 18.16 2.66 30.383 12.312 5.293 4.176 20.258 29.543 24.531 33.485 4.277 3.937 9.23 5.414 10.129 5.414.902 0 2.25-7.14-2.7-15.02-4.952-7.875-13.503-14.523-17.777-17.48-4.28-2.953-7.66-7.387-7.66-9.848 0-2.46.68-5.172 1.805-5.418 1.125-.246-1.125 4.68 3.148 7.387 4.278 2.71 24.086 4.187 32.864 11.82 8.777 7.63 18.004 24.13 18.906 27.575.898 3.449 3.148-16.743-5.852-34.961-9.004-18.22-17.336-23.883-20.93-26.344-3.605-2.465-6.98-3.696-6.753-4.434.222-.738 15.304 2.707 24.304 7.633 9.004 4.926 21.16 12.805 22.73 36.688 1.579 23.882-7.874 23.386-4.5 40.378 3.38 16.989 11.79 20.711 14.044 21.946 2.25 1.226-12.485-13.125-6.442-35.274 5.434-19.93 11.704-29.297 13.727-30.039 2.027-.738-.445.989-2.246 7.145-1.8 6.152-5.125 29.82-1.973 37.207 3.149 7.387 5.781 5.047 7.805 9.476 2.027 4.434-5.106-7.261-3.98-17.847 1.124-10.59 6.527-25.61 5.398-41.86-1.125-16.25-12.168-29.035-15.77-29.035-3.601 0-4.953 2.953-5.851 4.184-.899 1.23-.676-5.168.898-6.895 1.574-1.722 7.32-3.613 13.68.614 7.117 4.73 19.887 7.667 24.078 45.859 2.258 20.55-4.078 25.691-.336 38.418 2.79 9.473 20.68 18.75 19.735 16.406-2.872-7.101-6.989-9.793-8.532-21.824-1.844-14.414.895-21.566-.004-27.723-.898-6.152-6.789-34.492-23-53.332-7.261-8.437-19.574-15.71-19.797-16.941-.226-1.23 10.348-.742 15.528.738 5.18 1.477 13.984 4.563 21.605 13.543 4.465 5.258 14.828 28.438 14.828 28.438s1.88-8.7 7.957-18.055c6.075-9.356 7.086-18.629 4.04-24.137-8.422-15.219 5.753-.277 7.14 2.91 1.985 4.559 3.258 10.618 4.285 20.66 1.664 16.25-7.949 48.27-9.3 52.454-1.352 4.187 11.105-15.063 14.847-26.207 3.102-9.247 8.246-26.172 10.496-34.297 2.25-8.125 4.051-10.832 4.278-9.848.222.984-.313 8.828-.227 11.82.23 7.918 3.148 8.29 3.34 16.078.172 7.086-2.813 15.75-3.035 16.98-.23 1.235 10.5-14.593 13.199-19.026 2.703-4.43 6.305-11.079 7.656-19.45 1.348-8.37-.226-11.082 0-12.312.223-1.23 1.797-.246 2.7 2.71.902 2.954 4.726 16.25 4.273 25.114-.445 8.863-6.906 18.168-6.906 18.168s16.136-13.242 21.312-18.168c5.176-4.926 9.68-13.789 10.8-18.469 1.13-4.675 2.255 4.434-.671 12.067s-9.453 16.742-16.879 26.344c-7.43 9.601-17.375 16.93-17.601 18.16-.223 1.234 15.73-3.977 25.125-12.29 6.101-5.406 24.66-20.644 27.812-25.074 3.152-4.433 3.152-3.203 2.477-1.476-.68 1.722-6.754 13.293-9.68 19.449-2.93 6.156-.988 7.441-9.453 14.773-3.274 2.836-13.899 10.536-13.899 10.536s9.168-5.055 18.125-4.79c8.121.239 11.352 3.825 13.602 4.81 2.25.984 7.266 8.339 6.36 9.323-.9.985-8.282-5.894-18.454-2.504-13.012 4.329-7.387 8.387-20.21 14.293-5.637 2.594-24.137 2.23-31.9 9.985-3.878 3.875-8.128 16.863-8.128 16.863s16.527-12.684 40.2-16.863c31.421-5.551 46.03 7.199 48.694 10.75 6.637 8.844 5.59 14.21 4.223 12.504-5.129-6.403-13.273-10.977-19.004-11.586-14.367-1.531-19.605 0-26.547 4.574-7.011 4.625-8.972 6.207-13.992 12.086-4.586 5.363-7.871 9.555-10.766 15.797-.492 1.062 11.122-6.817 26.56-2.426 15.058 4.281 17.597 9.867 21.116 13.426 1.996 2.015 6.614 5.578 11.68 6.308 15.277 2.207 13.277.485 14.879 1.454 1.547.94-9.918 15.69-28.36 16.48-11.34.484-12.367-.914-19.003-.305-15.563 1.43-15.559 4.008-25.325 8.27-15.386 6.715-26.293 12.52-37.875 24.144-11.312 11.356-13.945 18.559-16.25 32.54-2.523 15.308 7.055 42.894 14.813 50.648 10.668 10.668 33.848 17.902 40.668 18.668 6.535.734-63.485 20.601-94.774 19.617-31.285-.984-69.894-26.95-69.894-26.95" fill="#5d1f22"/>
    </g>
  </g>
  <path d="M283.465 51.246c-62.027 0-120.348 24.152-164.203 68.016-43.864 43.86-68.024 102.175-68.024 164.207 0 62.027 24.16 120.34 68.024 164.203 43.855 43.86 102.176 68.012 164.203 68.012s120.348-24.153 164.207-68.012c43.86-43.863 68.02-102.176 68.02-164.203 0-62.031-24.16-120.348-68.02-164.207-43.86-43.864-102.18-68.016-164.207-68.016Zm0 0" fill="none" stroke-width=".306" stroke="#231f20" stroke-miterlimit="10"/>
  <path d="M193.566 438.508c-1.28-.672-1.855-1.828-1.097-3.266.754-1.433 2.031-1.617 3.312-.941l12.985 6.836c1.695.89 1.847 2.343 1.117 3.73l-16.64 31.617c-.731 1.383-2.016 2.086-3.708 1.196l-12.988-6.836c-1.281-.676-1.856-1.828-1.098-3.266.758-1.437 2.031-1.617 3.313-.941l10.883 5.726 6.292-11.96-9.906-5.216c-1.281-.671-1.855-1.828-1.097-3.261.754-1.438 2.03-1.621 3.312-.946l9.906 5.215 6.297-11.957Zm0 0" fill="#006b30" stroke-width="1.505" stroke="#00642c" stroke-miterlimit="10"/>
  <path d="M121.66 427.117c-.996-.969-.933-2.285-.16-3.074.441-.457.973-.832 1.625-1.172l33.54-16.406c1.628-.762 2.769-1.184 4.062.07 1.285 1.254.89 2.406.175 4.059l-15.5 33.965c-.32.664-.683 1.199-1.129 1.656-.765.793-2.078.89-3.074-.078-1.457-1.418-.738-2.82.059-4.555l13.52-28.855-.083-.082-28.48 14.289c-1.711.843-3.098 1.601-4.555.183" fill="#006b30"/>
  <path d="M121.66 427.117c-.996-.969-.933-2.285-.16-3.074.441-.457.973-.832 1.625-1.172l33.54-16.406c1.628-.762 2.769-1.184 4.062.07 1.285 1.254.89 2.406.175 4.059l-15.5 33.965c-.32.664-.683 1.199-1.129 1.656-.765.793-2.078.89-3.074-.078-1.457-1.418-.738-2.82.059-4.555l13.52-28.855-.083-.082-28.48 14.289c-1.711.843-3.098 1.601-4.555.183Zm0 0" fill="none" stroke-width="1.505" stroke="#00642c" stroke-miterlimit="10"/>
  <path d="M108.48 372.613c-2.433-4.75-5.503-5.781-10.253-3.347-3.407 1.746-4.922 5.91-2.754 10.144l3.12 6.09 13.06-6.691Zm24.415-1.824c.714 1.395.234 2.75-1.262 3.516L99.477 390.78c-1.395.715-2.848.547-3.723-1.156l-4.309-8.414c-2.965-5.781-1.843-13.262 4.145-16.328 7.433-3.809 12.496-.668 15.555 4.668l1.058 1.937 6.848-18.304c.328-.883.844-1.536 1.617-1.934.98-.504 2.203-.023 2.812 1.164.504.98.301 1.738.024 2.594l-8.188 21.922 13.989-7.168c1.5-.766 2.875-.364 3.59 1.027" fill="#006b30"/>
  <path d="M108.48 372.613c-2.433-4.75-5.503-5.781-10.253-3.347-3.407 1.746-4.922 5.91-2.754 10.144l3.12 6.09 13.06-6.691Zm24.415-1.824c.714 1.395.234 2.75-1.262 3.516L99.477 390.78c-1.395.715-2.848.547-3.723-1.156l-4.309-8.414c-2.965-5.781-1.843-13.262 4.145-16.328 7.433-3.809 12.496-.668 15.555 4.668l1.058 1.937 6.848-18.304c.328-.883.844-1.536 1.617-1.934.98-.504 2.203-.023 2.812 1.164.504.98.301 1.738.024 2.594l-8.188 21.922 13.989-7.168c1.5-.766 2.875-.364 3.59 1.027Zm0 0" fill="none" stroke-width="1.505" stroke="#00642c" stroke-miterlimit="10"/>
  <path d="M105.914 307.113c-.254-1.43.305-2.59 1.902-2.875 1.598-.285 2.524.606 2.782 2.035l2.582 14.442c.34 1.883-.715 2.898-2.258 3.172l-35.164 6.293c-1.543.277-2.883-.305-3.223-2.192l-2.582-14.441c-.258-1.426.3-2.586 1.899-2.875 1.601-.285 2.527.61 2.78 2.039l2.169 12.101 13.3-2.382-1.972-11.016c-.258-1.426.305-2.586 1.898-2.875 1.602-.285 2.528.61 2.782 2.035l1.972 11.02 13.301-2.383Zm0 0" fill="#006b30" stroke-width="1.505" stroke="#00642c" stroke-miterlimit="10"/>
  <path d="M109.422 271.906c-.219 1.551-1.39 2.383-3.055 2.149l-35.894-5.047c-2.012-.281-2.883-1.164-2.664-2.715.214-1.55.937-2.094 3.14-3.191l32.598-16.504.02-.114-29.637-4.164c-1.664-.234-2.563-1.355-2.344-2.906.219-1.55 1.39-2.383 3.055-2.148l35.894 5.047c2.008.28 2.883 1.164 2.664 2.718-.219 1.547-.937 2.09-3.144 3.188l-32.598 16.5-.016.117L107.078 269c1.664.234 2.563 1.355 2.344 2.906" fill="#006b30"/>
  <path d="M109.422 271.906c-.219 1.551-1.39 2.383-3.055 2.149l-35.894-5.047c-2.012-.281-2.883-1.164-2.664-2.715.214-1.55.937-2.094 3.14-3.191l32.598-16.504.02-.114-29.637-4.164c-1.664-.234-2.563-1.355-2.344-2.906.219-1.55 1.39-2.383 3.055-2.148l35.894 5.047c2.008.28 2.883 1.164 2.664 2.718-.219 1.547-.937 2.09-3.144 3.188l-32.598 16.5-.016.117L107.078 269c1.664.234 2.563 1.355 2.344 2.906Zm0 0" fill="none" stroke-width="1.505" stroke="#00642c" stroke-miterlimit="10"/>
  <path d="M124.707 200.828c4.488-8.453-.914-15.465-8.344-19.41-7.527-4-15.933-4.133-20.508 4.473l-3.265 6.148 28.687 15.242Zm-37.125-8.758 4.707-8.863c5.77-10.86 17-11.723 26.633-6.605 10.86 5.77 15.394 15.535 10.168 25.37l-5.035 9.477c-.899 1.692-2.356 1.836-3.739 1.102l-31.554-16.766c-1.383-.734-2.078-2.023-1.18-3.715" fill="#006b30"/>
  <path d="M124.707 200.828c4.488-8.453-.914-15.465-8.344-19.41-7.527-4-15.933-4.133-20.508 4.473l-3.265 6.148 28.687 15.242Zm-37.125-8.758 4.707-8.863c5.77-10.86 17-11.723 26.633-6.605 10.86 5.77 15.394 15.535 10.168 25.37l-5.035 9.477c-.899 1.692-2.356 1.836-3.739 1.102l-31.554-16.766c-1.383-.734-2.078-2.023-1.18-3.715Zm0 0" fill="none" stroke-width="1.505" stroke="#00642c" stroke-miterlimit="10"/>
  <path d="M164.723 148.59c1.047-1.008 2.32-1.188 3.445-.016 1.129 1.168.898 2.438-.145 3.442L157.45 162.19c-1.379 1.329-2.812 1.016-3.898-.113l-24.774-25.746c-1.086-1.129-1.347-2.57.032-3.898l10.574-10.176c1.047-1.004 2.32-1.188 3.445-.016 1.129 1.168.899 2.438-.144 3.442l-8.864 8.527 9.371 9.738 8.067-7.762c1.047-1.003 2.32-1.187 3.449-.015 1.125 1.172.898 2.437-.148 3.441l-8.067 7.766 9.371 9.738Zm0 0" fill="#006b30" stroke-width="1.505" stroke="#00642c" stroke-miterlimit="10"/>
  <path d="m234.559 78.234-2.485 23.57 15.559-3.753-12.961-19.844Zm-5.801 38.512c-1.297.317-2.559-.219-2.871-1.512-.164-.68.031-2.097.078-2.644l4.445-36.219c.2-1.898.844-3.426 2.82-3.902 1.973-.473 3.243.59 4.286 2.187l20.472 30.203c.293.47 1.114 1.641 1.278 2.317.312 1.297-.57 2.347-1.868 2.66-1.351.324-2.218-.3-2.87-1.277l-4.337-6.59-18.605 4.488-.852 7.844c-.136 1.168-.625 2.12-1.976 2.445" fill="#006b30"/>
  <path d="m234.559 78.234-2.485 23.57 15.559-3.753-12.961-19.844Zm-5.801 38.512c-1.297.317-2.559-.219-2.871-1.512-.164-.68.031-2.097.078-2.644l4.445-36.219c.2-1.898.844-3.426 2.82-3.902 1.973-.473 3.243.59 4.286 2.187l20.472 30.203c.293.47 1.114 1.641 1.278 2.317.312 1.297-.57 2.347-1.868 2.66-1.351.324-2.218-.3-2.87-1.277l-4.337-6.59-18.605 4.488-.852 7.844c-.136 1.168-.625 2.12-1.976 2.445Zm0 0" fill="none" stroke-width="1.505" stroke="#00642c" stroke-miterlimit="10"/>
  <path d="M297 57.063c1.793.148 2.508 3.523 5.746 3.785 3.234.265 4.484-2.95 6.277-2.805 1.098.09 1.72 1.07 1.625 2.227-.277 3.41-5.082 5.23-8.261 4.972-3.18-.262-7.625-2.832-7.348-6.242.094-1.156.863-2.023 1.961-1.938m6.645 30.63c.128-1.622 1.23-2.286 2.675-2.169l8.559.696c2.601.21 3.625 1.226 3.36 4.465-.805 9.882-5.196 19.476-19.184 18.34-11.852-.97-17.203-11.704-16.332-22.399.87-10.691 7.601-20.445 20.492-19.395 8.496.692 13.742 5.598 13.566 7.739-.105 1.328-1.18 2.347-2.625 2.23-2.543-.207-4.246-5-11.644-5.605-9.25-.75-13.715 7.613-14.356 15.472-.64 7.864 2.356 16.836 11.89 17.614 8.04.656 12.407-5.856 12.86-11.407l.2-2.425-7.172-.586c-1.442-.117-2.422-.953-2.29-2.57" fill="#006b30"/>
  <path d="M297 57.063c1.793.148 2.508 3.523 5.746 3.785 3.234.265 4.484-2.95 6.277-2.805 1.098.09 1.72 1.07 1.625 2.227-.277 3.41-5.082 5.23-8.261 4.972-3.18-.262-7.625-2.832-7.348-6.242.094-1.156.863-2.023 1.961-1.938Zm6.645 30.628c.128-1.62 1.23-2.285 2.675-2.168l8.559.696c2.601.21 3.625 1.226 3.36 4.465-.805 9.882-5.196 19.476-19.184 18.34-11.852-.97-17.203-11.704-16.332-22.399.87-10.691 7.601-20.445 20.492-19.395 8.496.692 13.742 5.598 13.566 7.739-.105 1.328-1.18 2.347-2.625 2.23-2.543-.207-4.246-5-11.644-5.605-9.25-.75-13.715 7.613-14.356 15.472-.64 7.864 2.356 16.836 11.89 17.614 8.04.656 12.407-5.856 12.86-11.407l.2-2.425-7.172-.586c-1.442-.117-2.422-.953-2.29-2.57Zm0 0" fill="none" stroke-width="1.505" stroke="#00642c" stroke-miterlimit="10"/>
  <path d="m371.332 91.105-16.469 17.051 14.582 6.617 1.993-23.62Zm-28.273 26.79c-1.22-.551-1.883-1.747-1.332-2.961.285-.633 1.312-1.633 1.687-2.036l25.793-25.812c1.324-1.375 2.773-2.184 4.625-1.344 1.848.84 2.195 2.461 2.031 4.363l-2.445 36.41c-.059.547-.137 1.977-.422 2.614-.55 1.215-1.89 1.496-3.105.945-1.27-.574-1.567-1.601-1.48-2.773l.64-7.864-17.434-7.914-5.5 5.66c-.824.837-1.793 1.29-3.058.712" fill="#006b30"/>
  <path d="m371.332 91.105-16.469 17.051 14.582 6.617 1.993-23.62Zm-28.273 26.79c-1.22-.551-1.883-1.747-1.332-2.961.285-.633 1.312-1.633 1.687-2.036l25.793-25.812c1.324-1.375 2.773-2.184 4.625-1.344 1.848.84 2.195 2.461 2.031 4.363l-2.445 36.41c-.059.547-.137 1.977-.422 2.614-.55 1.215-1.89 1.496-3.105.945-1.27-.574-1.567-1.601-1.48-2.773l.64-7.864-17.434-7.914-5.5 5.66c-.824.837-1.793 1.29-3.058.712Zm0 0" fill="none" stroke-width="1.505" stroke="#00642c" stroke-miterlimit="10"/>
  <path d="M409.473 155.05c4.457 4.24 9.03 3.466 10.59 4.946.882.84.832 2.07-.168 3.121-1.801 1.89-8.204.125-13.457-4.87-8.622-8.192-6.043-19.911 1.347-27.688 7.395-7.778 18.926-10.98 27.797-2.547 5.254 4.996 5.941 11.09 4.504 12.605-.918.965-2.227 1.246-3.191.324-1.684-1.597.23-5.379-4.352-9.734-6.64-6.316-15.367-2.61-20.805 3.11-5.433 5.718-8.613 14.699-2.265 20.734m-3.852 5.062c1.852 1.762 1.625 4.106.703 5.07-2.437 2.567-5.414 1.739-8.105-.82-1.805-1.718-2.508-3.504-1.668-4.39.52-.543 1.332-.895 1.96-.293.548.52 1.067 1.656 1.868 2.414 1.008.957 1.75 1.105 2.55.265.762-.8.09-1.359-1.132-2.52-1.05-.995-.7-1.784-.5-1.995.281-.293.726-.512 1.418-.653l2.574-.515 2.227 2.117-2.895.61c.25.156.54.273 1 .71" fill="#006b30"/>
  <path d="M409.473 155.05c4.457 4.24 9.03 3.466 10.59 4.946.882.84.832 2.07-.168 3.121-1.801 1.89-8.204.125-13.457-4.87-8.622-8.192-6.043-19.911 1.347-27.688 7.395-7.778 18.926-10.98 27.797-2.547 5.254 4.996 5.941 11.09 4.504 12.605-.918.965-2.227 1.246-3.191.324-1.684-1.597.23-5.379-4.352-9.734-6.64-6.316-15.367-2.61-20.805 3.11-5.433 5.718-8.613 14.699-2.265 20.734Zm-3.852 5.063c1.852 1.762 1.625 4.106.703 5.07-2.437 2.567-5.414 1.739-8.105-.82-1.805-1.718-2.508-3.504-1.668-4.39.52-.543 1.332-.895 1.96-.293.548.52 1.067 1.656 1.868 2.414 1.008.957 1.75 1.105 2.55.265.762-.8.09-1.359-1.132-2.52-1.05-.995-.7-1.784-.5-1.995.281-.293.726-.512 1.418-.653l2.574-.515 2.227 2.117-2.895.61c.25.156.54.273 1 .71Zm0 0" fill="none" stroke-width="1.505" stroke="#00642c" stroke-miterlimit="10"/>
  <path d="M458 239.742c2.238 9.008 11.492 10.176 19.148 8.278 7.657-1.903 15.29-7.262 13.055-16.27-2.234-9.008-11.488-10.176-19.148-8.273-7.657 1.898-15.29 7.257-13.055 16.265m36.48-9.054c2.852 11.488-5.601 20.039-16.02 22.625-10.413 2.582-21.886-1.024-24.737-12.508-2.852-11.485 5.605-20.04 16.02-22.621 10.413-2.586 21.89 1.02 24.737 12.504" fill="#006b30"/>
  <path d="M458 239.742c2.238 9.008 11.492 10.176 19.148 8.278 7.657-1.903 15.29-7.262 13.055-16.27-2.234-9.008-11.488-10.176-19.148-8.273-7.657 1.898-15.29 7.257-13.055 16.265Zm36.48-9.054c2.852 11.488-5.601 20.039-16.02 22.625-10.413 2.582-21.886-1.024-24.737-12.508-2.852-11.485 5.605-20.04 16.02-22.621 10.413-2.586 21.89 1.02 24.737 12.504Zm0 0" fill="none" stroke-width="1.505" stroke="#00642c" stroke-miterlimit="10"/>
  <path d="M463.012 303.453c-.102 1.445-.926 2.438-2.543 2.328-1.621-.113-2.301-1.207-2.203-2.652l.906-13.254c.133-1.906 1.402-2.633 2.965-2.527l36.05 2.468c1.676.118 2.653 1.172 2.543 2.735-.105 1.562-1.214 2.472-2.894 2.36l-34.082-2.337Zm0 0" fill="#006b30" stroke-width="1.505" stroke="#00642c" stroke-miterlimit="10"/>
  <path d="M452.742 333.309c.613-1.442 1.895-1.778 3.336-1.16.586.25 1.18.628 2.02 1.18l28.285 18.218c2.515 1.644 2.726 3.5 2 5.207-.801 1.867-1.906 2.527-3.914 2.363l-31.246-3.781-.047.11 24.312 19.988c1.508 1.34 1.793 2.597.992 4.46-.73 1.708-2.222 2.836-5.144 2.153l-32.715-7.879c-.973-.227-1.66-.395-2.246-.645-1.441-.613-2.078-1.773-1.465-3.21.524-1.227 1.356-2.133 3.102-1.641l32.39 8.621.047-.106-26.73-22.156c-1.34-1.14-1.348-2.156-.89-3.222.452-1.067 1.19-1.758 2.944-1.579l34.485 4.032.047-.11-28.61-17.472c-1.562-.918-1.476-2.145-.953-3.371" fill="#006b30"/>
  <path d="M452.742 333.309c.613-1.442 1.895-1.778 3.336-1.16.586.25 1.18.628 2.02 1.18l28.285 18.218c2.515 1.644 2.726 3.5 2 5.207-.801 1.867-1.906 2.527-3.914 2.363l-31.246-3.781-.047.11 24.312 19.988c1.508 1.34 1.793 2.597.992 4.46-.73 1.708-2.222 2.836-5.144 2.153l-32.715-7.879c-.973-.227-1.66-.395-2.246-.645-1.441-.613-2.078-1.773-1.465-3.21.524-1.227 1.356-2.133 3.102-1.641l32.39 8.621.047-.106-26.73-22.156c-1.34-1.14-1.348-2.156-.89-3.222.452-1.067 1.19-1.758 2.944-1.579l34.485 4.032.047-.11-28.61-17.472c-1.562-.918-1.476-2.145-.953-3.371Zm0 0" fill="none" stroke-width="1.505" stroke="#00642c" stroke-miterlimit="10"/>
  <path d="m434.855 430.426-10.457-21.274-11.168 11.473 21.547 9.883Zm-15.613-35.684c.93-.957 2.281-1.18 3.235-.246.5.484 1.093 1.79 1.343 2.277l15.54 33.02c.843 1.71 1.113 3.348-.305 4.8-1.414 1.458-3.059 1.231-4.793.434l-33.422-14.644c-.496-.238-1.817-.797-2.317-1.281-.953-.934-.77-2.29.164-3.243.97-1 2.036-.93 3.11-.453l7.183 3.27 13.352-13.719-3.457-7.09c-.508-1.062-.605-2.129.367-3.125" fill="#006b30"/>
  <path d="m434.855 430.426-10.457-21.274-11.168 11.473 21.547 9.883Zm-15.613-35.684c.93-.957 2.281-1.18 3.235-.246.5.484 1.093 1.79 1.343 2.277l15.54 33.02c.843 1.71 1.113 3.348-.305 4.8-1.414 1.458-3.059 1.231-4.793.434l-33.422-14.644c-.496-.238-1.817-.797-2.317-1.281-.953-.934-.77-2.29.164-3.243.97-1 2.036-.93 3.11-.453l7.183 3.27 13.352-13.719-3.457-7.09c-.508-1.062-.605-2.129.367-3.125Zm0 0" fill="none" stroke-width="1.505" stroke="#00642c" stroke-miterlimit="10"/>
  <path d="M372.207 434.355c1.402-.703 2.75-.214 3.508 1.29l16.402 32.656c.754 1.504.344 2.879-1.058 3.582-1.399.703-2.747.21-3.504-1.293l-6.77-13.477-8.543 22.407c-.437 1.19-.773 2.203-1.762 2.699-1.19.597-2.359.21-2.957-.98-.597-1.192-.445-1.79-.109-2.544l8.29-21.234-24.556-7.656c-1.117-.285-1.53-.727-1.87-1.399-.548-1.09-.032-2.515 1.21-3.14.676-.34 1.297-.524 2.727-.137l25.695 8.254-7.758-15.445c-.757-1.504-.343-2.88 1.055-3.583" fill="#006b30"/>
  <path d="M372.207 434.355c1.402-.703 2.75-.214 3.508 1.29l16.402 32.656c.754 1.504.344 2.879-1.058 3.582-1.399.703-2.747.21-3.504-1.293l-6.77-13.477-8.543 22.407c-.437 1.19-.773 2.203-1.762 2.699-1.19.597-2.359.21-2.957-.98-.597-1.192-.445-1.79-.109-2.544l8.29-21.234-24.556-7.656c-1.117-.285-1.53-.727-1.87-1.399-.548-1.09-.032-2.515 1.21-3.14.676-.34 1.297-.524 2.727-.137l25.695 8.254-7.758-15.445c-.757-1.504-.343-2.88 1.055-3.583Zm0 0" fill="none" stroke-width="1.505" stroke="#00642c" stroke-miterlimit="10"/>
  <path d="M270.586 282.871h20.164c-3.402-8.418-7.176-17.73-10.113-24.976a5744.272 5744.272 0 0 1-10.051 24.976m-43.371 41.879h-16.512c-4.016 0-7.285-3.266-7.285-7.281V264.16c0-4.015 3.27-7.285 7.285-7.285h42.238c3 0 5.442 2.441 5.442 5.445a5.449 5.449 0 0 1-5.442 5.446h-38.629v15.105h28.579c3 0 5.445 2.445 5.445 5.445a5.456 5.456 0 0 1-5.445 5.45h-28.578v20.093h12.902c12.496 0 20.691-4.957 25.047-15.148 5.113-11.957 16.574-40.617 21.265-52.387l.086-.187c.547-1.04 2.637-4.356 6.985-4.356 3.773 0 6.234 2.57 7.28 4.977l.02.047c.809 1.992 19.735 48.71 21.664 53.53 1.38 3.45 8.38 13.29 21.985 13.29 12.058 0 25.074-9.496 25.074-24.844 0-14.93-12.664-24.96-24.496-24.96-9.29 0-15.23 4.59-17.945 7.327a5.375 5.375 0 0 1-3.88 1.637c-2.991 0-5.433-2.437-5.433-5.43a5.39 5.39 0 0 1 1.219-3.43l-.024-.015.403-.406c3.953-3.95 12.539-10.574 25.66-10.574 8.844 0 17.738 3.683 24.41 10.11 7.082 6.827 10.98 15.968 10.98 25.741 0 19.707-16.136 35.739-35.968 35.739-17.516 0-28.985-12.352-32.098-20.137-.476-1.184-1.996-4.95-4.289-10.617h-29.023a832.916 832.916 0 0 1-3.86 9.226c-6.172 14.438-17.968 21.758-35.062 21.758" fill="#fff"/>
</svg>