<svg xmlns="http://www.w3.org/2000/svg" width="755.907" height="755.905" viewBox="0 0 566.93 566.929">
  <path d="M246.277 233.063h59.668a495739.997 495739.997 0 0 0-29.925-73.903c-8.02 20.055-19.196 47.922-29.743 73.903M117.961 356.964H69.117c-11.887 0-21.555-9.668-21.555-21.55V177.702c0-11.887 9.668-21.555 21.555-21.555h124.95c8.886 0 16.113 7.23 16.113 16.114 0 8.886-7.227 16.117-16.114 16.117H79.793v44.684h84.547c8.887 0 16.113 7.226 16.113 16.113s-7.226 16.113-16.113 16.113H79.793v59.45h38.168c36.977 0 61.219-14.66 74.11-44.813 15.12-35.38 49.034-120.176 62.913-154.988l.254-.56c1.621-3.077 7.801-12.878 20.668-12.878 11.156 0 18.438 7.602 21.535 14.715l.063.14c2.387 5.891 58.383 144.122 64.09 158.38 4.078 10.199 24.785 39.316 65.039 39.316 35.68 0 74.191-28.102 74.191-73.504 0-44.172-37.476-73.844-72.472-73.844-27.489 0-45.063 13.582-53.09 21.676a15.944 15.944 0 0 1-11.485 4.836c-8.859 0-16.066-7.207-16.066-16.067 0-3.738 1.27-7.277 3.601-10.136l-.066-.051 1.188-1.2c11.687-11.683 37.09-31.284 75.918-31.284 26.16 0 52.48 10.902 72.214 29.918 20.946 20.187 32.485 47.234 32.485 76.152 0 58.3-47.739 105.73-106.418 105.73-51.82 0-85.75-36.539-94.961-59.57-1.402-3.5-5.899-14.64-12.684-31.418h-85.875c-4.636 11.258-8.476 20.438-11.41 27.3-18.258 42.716-53.16 64.376-103.742 64.376" fill="#00642c"/>
</svg>